<svg width="20" height="20" fill="none" xmlns="http://www.w3.org/2000/svg"><path fill-rule="evenodd" clip-rule="evenodd" d="M17.725 2.98c0 .007.004.016.017.016l-.005-.004h1.146c.017 0 .034.016.034.033v.225c0 .017-.021.033-.038.033h-1.15c-.012 0-.02.005-.02.017v.504c0 .042-.034.071-.076.071l-2.979-.004c-.017 0-.029.008-.033.025l-.13.575a.416.416 0 0 1-.028.062l-.109.163a.048.048 0 0 0-.008.042l.25 1.07a.058.058 0 0 1-.042.063l-1.079.237c-.033.005-.058-.012-.067-.041l-.104-.476c-.004-.012-.02-.016-.025-.004l-.367.854a.377.377 0 0 1-.112.117c-.18.108-.52.23-.725.23a.312.312 0 0 1-.15-.043l-.746-.42c-.02-.013-.05-.009-.062.012l-.284.3a.064.064 0 0 0 0 .067l.184.229a.08.08 0 0 1 0 .075L10.1 8.725c-.012.02-.037.033-.063.037l-.266.02c-.021 0-.038.022-.03.038l.055.892c.004.025.016.05.037.07.017.022.038.043.063.055.029.02.054.05.075.088.17.304.904 1.587 1.025 1.795.02.038.054.092.091.163.196.337.555.967.584 1.133.046.267.07.525 0 .754l-1.521 3.584a.265.265 0 0 1-.042.054l-.496.483a.064.064 0 0 0-.016.075l.25.371a.26.26 0 0 0 .15.104l.941.284c.005 0 .009.004.017.008 0 0 .013.004.021.02 0 0 0 .005.004.005a.429.429 0 0 1 .017.058V18.845c-.004 0-.004.005-.004.005l-.005.012c-.012.113-.095.2-.162.27a.461.461 0 0 1-.183.1c-.009 0-.013 0-.021.005-.13.042-.313.08-.584.113-.02 0-.045.004-.062.004-.083 0-.225.004-.23.004h-.003l-2.034-.013a.05.05 0 0 1-.05-.05l.117-.866c.004-.092.033-.154.062-.217a.441.441 0 0 0 .055-.192l.325-1.187a.666.666 0 0 1 .025-.125L8.604 15l.821-1.446a.072.072 0 0 0-.025-.092 1.117 1.117 0 0 0-.125-.067c-.096-.05-.204-.104-.25-.15-.25-.27-.813-1.087-.925-1.254a8.29 8.29 0 0 1-.213-.329 5.658 5.658 0 0 0-.333-.5.135.135 0 0 0-.146-.046l-.087.025a.123.123 0 0 0-.084.067l-1.37 3.025a2.558 2.558 0 0 1-.229.358l-2.879 3.38.021.154-.083 1.033c-.005.125-.109.246-.2.237l-1.513-.004-.075-.15-.025-.058c-.012-.025-.012-.05 0-.07l.496-.872c.03-.062.054-.358.054-.425l-.108-.191a.55.55 0 0 1 .062-.259l1.484-3.133a3.69 3.69 0 0 1 .608-.8l.442-.342c.008-.012.02-.029.025-.046l.125-.729.012-.1.158-1.829a.125.125 0 0 1 .13-.12l.266-.005c.021 0 .042-.017.046-.037L5.16 9c0-.009.004-.017.004-.021.004-.013.013-.021.021-.03l.346-.308c.008-.016.012-.033.017-.05l.258-.775a.054.054 0 0 0-.017-.05l-.504-.316c-.02-.025-.029-.063-.017-.088L5.98 5.33a.076.076 0 0 1 .067-.05l.458-.004c.02 0 .042-.013.054-.034 0 0 .08-.179.575-1.241.504-1.084 1.188-1.459 1.496-1.471.162-.009.496-.017.496-.017.016 0 .033-.017.041-.033l.155-.263-.284-.125a.082.082 0 0 1-.037-.07l-.042-.788c0-.017.03-.175.033-.188l.075-.17C9.13.75 9.21.64 9.305.545c.217-.216.63-.483 1.254-.383 1.288.204 1.554 1.125 1.588 1.263 0 .008.008.016.02.02l.18.067c.016.004.025.025.02.042l-.195.787a.054.054 0 0 1-.05.034l-.271-.03c-.025-.008-.046.013-.046.038l.008.137c0 .017.017.034.038.034h5.22c.005 0 .009-.004.013-.009.03-.05.071-.108.108-.162.038-.058.067-.1.071-.108.017-.03.042-.046.071-.046.05 0 .092.046.092.104l-.004.037c-.005.08-.005.242-.005.296l.308.313Z" fill="#9A958B"/></svg>