<svg width="49" height="101" fill="none" xmlns="http://www.w3.org/2000/svg"><path d="M16.796 100.115a2378.46 2378.46 0 0 1-5.623-6.096c1.096-.215 1.835-.396 2.659-.44C30.974 92.07 43.52 81.275 47.683 64.512c2.608-10.788.977-21.087-2.81-31.353C40.607 21.683 32.767 13.11 22.83 6.324 17.706 2.838 11.905 1.289 5.831.664 4.235.534 2.681.471.846.867c.832.422 1.682 1.021 2.548 1.044 21.194 1.329 40.247 24.002 41.92 47.955.679 9.386-1.513 18.12-6.856 25.906-6.295 9.137-18.62 14.7-29.426 13.175 2.294-3.137 6.915-4.527 7.195-9.514-4.264 2.863-8.163 5.404-11.951 7.969-1.25.878-1.844 2.194-.74 3.2 3.721 3.515 7.535 6.878 11.374 10.13.238.229.935-.02 1.402-.03.178-.017.365-.323.484-.587Z" fill="#F5C71B"/></svg>