<svg xmlns="http://www.w3.org/2000/svg" width="417.031" height="417.031" xml:space="preserve"><path d="M219.683 92.146c-.279-.315-.52-.627-.849-.925-3.644-3.272-3.742-2.306.247-5.983 2.955-2.712 6.541-4.834 9.79-7.18 8.596-6.213 14.254-14.534 18.079-24.399 8.582-22.15-16.706-37.453-29.396-50.562-9.168-9.485-23.603 4.982-14.444 14.447 7.076 7.325 16.19 13.264 22.349 21.407 6.897 9.116-3.613 19.174-10.814 24.249-11.133 7.844-20.757 18.262-18.533 29.434-49.964 4.668-96.16 32.052-96.16 80.327v135.51c0 59.862 48.698 108.562 108.564 108.562 59.863 0 108.566-48.7 108.566-108.562V172.95c.003-52.703-49.032-78.227-97.399-80.804zm-99.292 80.804c0-35.833 38.898-56.581 79.186-60.027v124.982c-36.751-1.85-66.589-10.222-79.186-14.309V172.95zm176.257 135.511c0 48.604-39.537 88.133-88.129 88.133-48.59 0-88.128-39.529-88.128-88.133V245.08c18.249 5.516 52.6 13.882 93.202 13.882 26.003 0 54.556-3.479 83.056-13.286v62.785zm0-84.521c-25.844 9.883-52.237 13.746-76.635 14.271v-125.59c39.407 2.363 76.635 21.264 76.635 60.337v50.982zm-6.913-7.737s-46.688 13.073-62.567 10.271V122.813c42.261 7.94 69.457 20.72 62.567 93.39z" fill="#f5c71b"/></svg>
